<?xml version="1.0" encoding="UTF-8" standalone="no"?>
<!-- Generator: Adobe Illustrator 15.0.0, SVG Export Plug-In . SVG Version: 6.00 Build 0)  -->

<!-- Original file from Wikimedia, created by David Peters: https://commons.wikimedia.org/wiki/File:Keyboard-icon_Wikipedians.svg -->

<!-- License: Creative Commons Attribution-Share Alike 3.0 Unported: https://creativecommons.org/licenses/by-sa/3.0/deed.en -->

<svg
   version="1.1"
   id="Layer_2_1_"
   x="0px"
   y="0px"
   width="146.98"
   height="146.98"
   viewBox="0 0 146.98 146.98"
   enable-background="new 0 0 146.98 97.838"
   xml:space="preserve"
   xmlns:xlink="http://www.w3.org/1999/xlink"
   xmlns="http://www.w3.org/2000/svg"
   xmlns:svg="http://www.w3.org/2000/svg"><defs
   id="defs75"><rect
     x="43.404092"
     y="15.016111"
     width="65.208125"
     height="43.082047"
     id="rect2191" /></defs>
<g
   id="g70"
   transform="translate(1.3803283,44.914903)">
	<defs
   id="defs3">
		<rect
   id="SVGID_1_"
   x="15.572"
   y="23.601"
   width="114.021"
   height="54.691002" />
	</defs>
	<clipPath
   id="SVGID_2_">
		<use
   xlink:href="#SVGID_1_"
   overflow="visible"
   id="use5"
   x="0"
   y="0"
   width="100%"
   height="100%" />
	</clipPath>
	<path
   clip-path="url(#SVGID_2_)"
   fill="none"
   stroke="#20221d"
   stroke-width="1.8"
   d="m 19.712,24.501 c 0,0 -3.24,0 -3.24,3.24 v 46.41 c 0,0 0,3.24 3.24,3.24 h 105.741 c 0,0 3.24,0 3.24,-3.24 v -46.41 c 0,0 0,-3.24 -3.24,-3.24 z"
   id="path8" />
	<path
   clip-path="url(#SVGID_2_)"
   fill="#20221d"
   d="m 43.614,63.057 c 0,0 -0.648,0 -0.648,0.647 v 5.624 c 0,0 0,0.648 0.648,0.648 h 57.662 c 0,0 0.648,0 0.648,-0.648 v -5.624 c 0,0 0,-0.647 -0.648,-0.647 z"
   id="path10" />
	<path
   clip-path="url(#SVGID_2_)"
   fill="#20221d"
   d="m 106.031,63.057 c 0,0 -0.648,0 -0.648,0.647 v 5.624 c 0,0 0,0.648 0.648,0.648 h 14.85 c 0,0 0.648,0 0.648,-0.648 v -5.624 c 0,0 0,-0.647 -0.648,-0.647 z"
   id="path12" />
	<path
   clip-path="url(#SVGID_2_)"
   fill="#20221d"
   d="m 24.146,63.057 c 0,0 -0.648,0 -0.648,0.647 v 5.624 c 0,0 0,0.648 0.648,0.648 h 14.85 c 0,0 0.648,0 0.648,-0.648 v -5.624 c 0,0 0,-0.647 -0.648,-0.647 z"
   id="path14" />
	<path
   clip-path="url(#SVGID_2_)"
   fill="#20221d"
   d="m 54.132,52.677 c 0,0 -0.647,0 -0.647,0.647 v 5.624 c 0,0 0,0.648 0.647,0.648 h 5.624 c 0,0 0.648,0 0.648,-0.648 v -5.624 c 0,0 0,-0.647 -0.648,-0.647 z"
   id="path16" />
	<path
   clip-path="url(#SVGID_2_)"
   fill="#20221d"
   d="m 43.752,52.677 c 0,0 -0.648,0 -0.648,0.647 v 5.624 c 0,0 0,0.648 0.648,0.648 h 5.624 c 0,0 0.647,0 0.647,-0.648 v -5.624 c 0,0 0,-0.647 -0.647,-0.647 z"
   id="path18" />
	<path
   clip-path="url(#SVGID_2_)"
   fill="#20221d"
   d="m 24.146,52.677 c 0,0 -0.648,0 -0.648,0.647 v 5.624 c 0,0 0,0.648 0.648,0.648 h 14.85 c 0,0 0.648,0 0.648,-0.648 v -5.624 c 0,0 0,-0.647 -0.648,-0.647 z"
   id="path20" />
	<path
   clip-path="url(#SVGID_2_)"
   fill="#20221d"
   d="m 64.512,52.677 c 0,0 -0.648,0 -0.648,0.647 v 5.624 c 0,0 0,0.648 0.648,0.648 h 5.624 c 0,0 0.647,0 0.647,-0.648 v -5.624 c 0,0 0,-0.647 -0.647,-0.647 z"
   id="path22" />
	<path
   clip-path="url(#SVGID_2_)"
   fill="#20221d"
   d="m 74.892,52.677 c 0,0 -0.647,0 -0.647,0.647 v 5.624 c 0,0 0,0.648 0.647,0.648 h 5.624 c 0,0 0.648,0 0.648,-0.648 v -5.624 c 0,0 0,-0.647 -0.648,-0.647 z"
   id="path24" />
	<path
   clip-path="url(#SVGID_2_)"
   fill="#20221d"
   d="m 85.271,52.677 c 0,0 -0.648,0 -0.648,0.647 v 5.624 c 0,0 0,0.648 0.648,0.648 h 5.624 c 0,0 0.647,0 0.647,-0.648 v -5.624 c 0,0 0,-0.647 -0.647,-0.647 z"
   id="path26" />
	<path
   clip-path="url(#SVGID_2_)"
   fill="#20221d"
   d="m 95.651,52.677 c 0,0 -0.647,0 -0.647,0.647 v 5.624 c 0,0 0,0.648 0.647,0.648 h 5.624 c 0,0 0.648,0 0.648,-0.648 v -5.624 c 0,0 0,-0.647 -0.648,-0.647 z"
   id="path28" />
	<path
   clip-path="url(#SVGID_2_)"
   fill="#20221d"
   d="m 106.031,52.677 c 0,0 -0.648,0 -0.648,0.647 v 5.624 c 0,0 0,0.648 0.648,0.648 h 14.989 c 0,0 0.647,0 0.647,-0.648 v -5.624 c 0,0 0,-0.647 -0.647,-0.647 z"
   id="path30" />
	<path
   clip-path="url(#SVGID_2_)"
   fill="#20221d"
   d="m 49.519,42.297 c 0,0 -0.648,0 -0.648,0.647 v 5.624 c 0,0 0,0.648 0.648,0.648 h 5.624 c 0,0 0.648,0 0.648,-0.648 v -5.624 c 0,0 0,-0.647 -0.648,-0.647 z"
   id="path32" />
	<path
   clip-path="url(#SVGID_2_)"
   fill="#20221d"
   d="m 39.139,42.297 c 0,0 -0.648,0 -0.648,0.647 v 5.624 c 0,0 0,0.648 0.648,0.648 h 5.624 c 0,0 0.648,0 0.648,-0.648 v -5.624 c 0,0 0,-0.647 -0.648,-0.647 z"
   id="path34" />
	<path
   clip-path="url(#SVGID_2_)"
   fill="#20221d"
   d="m 24.146,42.297 c 0,0 -0.648,0 -0.648,0.647 v 5.624 c 0,0 0,0.648 0.648,0.648 h 10.237 c 0,0 0.648,0 0.648,-0.648 v -5.624 c 0,0 0,-0.647 -0.648,-0.647 z"
   id="path36" />
	<path
   clip-path="url(#SVGID_2_)"
   fill="#20221d"
   d="m 59.898,42.297 c 0,0 -0.648,0 -0.648,0.647 v 5.624 c 0,0 0,0.648 0.648,0.648 h 5.624 c 0,0 0.648,0 0.648,-0.648 v -5.624 c 0,0 0,-0.647 -0.648,-0.647 z"
   id="path38" />
	<path
   clip-path="url(#SVGID_2_)"
   fill="#20221d"
   d="m 70.278,42.297 c 0,0 -0.647,0 -0.647,0.647 v 5.624 c 0,0 0,0.648 0.647,0.648 h 5.624 c 0,0 0.648,0 0.648,-0.648 v -5.624 c 0,0 0,-0.647 -0.648,-0.647 z"
   id="path40" />
	<path
   clip-path="url(#SVGID_2_)"
   fill="#20221d"
   d="m 80.658,42.297 c 0,0 -0.648,0 -0.648,0.647 v 5.624 c 0,0 0,0.648 0.648,0.648 h 5.624 c 0,0 0.647,0 0.647,-0.648 v -5.624 c 0,0 0,-0.647 -0.647,-0.647 z"
   id="path42" />
	<path
   clip-path="url(#SVGID_2_)"
   fill="#20221d"
   d="m 91.038,42.297 c 0,0 -0.647,0 -0.647,0.647 v 5.624 c 0,0 0,0.648 0.647,0.648 h 5.624 c 0,0 0.648,0 0.648,-0.648 v -5.624 c 0,0 0,-0.647 -0.648,-0.647 z"
   id="path44" />
	<path
   clip-path="url(#SVGID_2_)"
   fill="#20221d"
   d="m 101.418,42.297 c 0,0 -0.648,0 -0.648,0.647 v 5.624 c 0,0 0,0.648 0.648,0.648 h 5.624 c 0,0 0.647,0 0.647,-0.648 v -5.624 c 0,0 0,-0.647 -0.647,-0.647 z"
   id="path46" />
	<path
   clip-path="url(#SVGID_2_)"
   fill="#20221d"
   d="m 111.798,42.297 c 0,0 -0.647,0 -0.647,0.647 v 5.624 c 0,0 0,0.648 0.647,0.648 h 9.222 c 0,0 0.648,0 0.648,-0.648 v -5.624 c 0,0 0,-0.647 -0.648,-0.647 z"
   id="path48" />
	<path
   clip-path="url(#SVGID_2_)"
   fill="#20221d"
   d="m 74.635,31.916 c 0,0 -0.647,0 -0.647,0.648 v 5.624 c 0,0 0,0.648 0.647,0.648 h 5.625 c 0,0 0.647,0 0.647,-0.648 v -5.624 c 0,0 0,-0.648 -0.647,-0.648 z"
   id="path50" />
	<path
   clip-path="url(#SVGID_2_)"
   fill="#20221d"
   d="m 64.537,31.916 c 0,0 -0.647,0 -0.647,0.648 v 5.624 c 0,0 0,0.648 0.647,0.648 h 5.625 c 0,0 0.647,0 0.647,-0.648 v -5.624 c 0,0 0,-0.648 -0.647,-0.648 z"
   id="path52" />
	<path
   clip-path="url(#SVGID_2_)"
   fill="#20221d"
   d="m 54.439,31.916 c 0,0 -0.648,0 -0.648,0.648 v 5.624 c 0,0 0,0.648 0.648,0.648 h 5.624 c 0,0 0.647,0 0.647,-0.648 v -5.624 c 0,0 0,-0.648 -0.647,-0.648 z"
   id="path54" />
	<path
   clip-path="url(#SVGID_2_)"
   fill="#20221d"
   d="m 44.342,31.916 c 0,0 -0.648,0 -0.648,0.648 v 5.624 c 0,0 0,0.648 0.648,0.648 h 5.624 c 0,0 0.647,0 0.647,-0.648 v -5.624 c 0,0 0,-0.648 -0.647,-0.648 z"
   id="path56" />
	<path
   clip-path="url(#SVGID_2_)"
   fill="#20221d"
   d="m 34.244,31.916 c 0,0 -0.648,0 -0.648,0.648 v 5.624 c 0,0 0,0.648 0.648,0.648 h 5.624 c 0,0 0.648,0 0.648,-0.648 v -5.624 c 0,0 0,-0.648 -0.648,-0.648 z"
   id="path58" />
	<path
   clip-path="url(#SVGID_2_)"
   fill="#20221d"
   d="m 24.146,31.916 c 0,0 -0.648,0 -0.648,0.648 v 5.624 c 0,0 0,0.648 0.648,0.648 h 5.624 c 0,0 0.648,0 0.648,-0.648 v -5.624 c 0,0 0,-0.648 -0.648,-0.648 z"
   id="path60" />
	<path
   clip-path="url(#SVGID_2_)"
   fill="#20221d"
   d="m 84.733,31.916 c 0,0 -0.647,0 -0.647,0.648 v 5.624 c 0,0 0,0.648 0.647,0.648 h 5.624 c 0,0 0.648,0 0.648,-0.648 v -5.624 c 0,0 0,-0.648 -0.648,-0.648 z"
   id="path62" />
	<path
   clip-path="url(#SVGID_2_)"
   fill="#20221d"
   d="m 94.832,31.916 c 0,0 -0.648,0 -0.648,0.648 v 5.624 c 0,0 0,0.648 0.648,0.648 h 5.623 c 0,0 0.648,0 0.648,-0.648 v -5.624 c 0,0 0,-0.648 -0.648,-0.648 z"
   id="path64" />
	<path
   clip-path="url(#SVGID_2_)"
   fill="#20221d"
   d="m 104.93,31.916 c 0,0 -0.648,0 -0.648,0.648 v 5.624 c 0,0 0,0.648 0.648,0.648 h 5.623 c 0,0 0.648,0 0.648,-0.648 v -5.624 c 0,0 0,-0.648 -0.648,-0.648 z"
   id="path66" />
	<path
   clip-path="url(#SVGID_2_)"
   fill="#20221d"
   d="m 115.027,31.916 c 0,0 -0.648,0 -0.648,0.648 v 5.624 c 0,0 0,0.648 0.648,0.648 h 5.624 c 0,0 0.647,0 0.647,-0.648 v -5.624 c 0,0 0,-0.648 -0.647,-0.648 z"
   id="path68" />
</g>
<text
   xml:space="preserve"
   style="font-style:normal;font-variant:normal;font-weight:bold;font-stretch:normal;font-size:42.6667px;line-height:50px;font-family:sans-serif;-inkscape-font-specification:'sans-serif Bold';letter-spacing:0px;word-spacing:0px;fill:#000000;fill-opacity:1;stroke:none;stroke-width:1px;stroke-linecap:butt;stroke-linejoin:miter;stroke-opacity:1"
   x="24.485535"
   y="60.36375"
   id="text23533"><tspan
     id="tspan23531"
     x="24.485535"
     y="60.36375"
     style="font-size:42.6667px">DAS</tspan></text></svg>
